<?xml version="1.0" encoding="utf-8"?>
<!-- Generator: Adobe Illustrator 16.0.0, SVG Export Plug-In . SVG Version: 6.00 Build 0)  -->
<!DOCTYPE svg PUBLIC "-//W3C//DTD SVG 1.1//EN" "http://www.w3.org/Graphics/SVG/1.1/DTD/svg11.dtd">
<svg version="1.1" id="Calque_1" xmlns="http://www.w3.org/2000/svg" xmlns:xlink="http://www.w3.org/1999/xlink" x="0px" y="0px"
	 width="280.334px" height="150px" viewBox="4.5 7.5 280.334 150" enable-background="new 4.5 7.5 280.334 150"
	 xml:space="preserve">
<g>
	<rect x="148.5" y="7.5" width="30" height="57"/>
	<rect x="148.5" y="127.5" width="63" height="30"/>
	<rect x="148.5" y="7.5" width="63" height="30"/>
	<path d="M211.5,7.5v30c24.301,0,44,20.146,44,45c0,24.854-19.699,45-44,45v30c40.502,0,73.334-33.579,73.334-75
		S252.002,7.5,211.5,7.5z"/>
</g>
<rect x="4.5" y="7.5" width="30" height="150"/>
<polygon points="121.907,135.926 121.907,157.5 100.333,157.5 9.134,66.12 30.528,44.816 "/>
<rect x="91.5" y="7.5" width="30" height="56"/>
<rect x="4.5" y="7.5" width="117" height="30"/>
</svg>
